<svg width="24" height="24" viewBox="0 0 24 24" fill="none" xmlns="http://www.w3.org/2000/svg">
<path fill-rule="evenodd" clip-rule="evenodd" d="M24 12C24 18.6274 18.6274 24 12 24C5.37258 24 0 18.6274 0 12C0 5.37258 5.37258 0 12 0C18.6274 0 24 5.37258 24 12ZM17.6899 5.39323L4.68292 10.2874C3.79143 10.6275 3.80717 11.1091 4.53003 11.3329L7.8599 12.3466L14.7737 8.36725C15.1323 8.13467 15.4651 8.26632 15.193 8.5L9.75304 13.2441L9.51359 16.5935C9.86209 16.5935 10.0139 16.4454 10.1937 16.2699L11.8204 14.7405L15.193 17.1662C15.808 17.5063 16.2475 17.3307 16.4117 16.6089L18.6263 6.4267L18.6252 6.4278C18.8208 5.53695 18.2936 5.1804 17.6899 5.39323Z" fill="url(#paint0_linear_107_50)"/>
<defs>
<linearGradient id="paint0_linear_107_50" x1="-4.24217e-07" y1="12" x2="22.2842" y2="17.5109" gradientUnits="userSpaceOnUse">
<stop offset="0.168525" stop-color="#0B38AD"/>
<stop offset="0.572927" stop-color="#6613AD"/>
<stop offset="1" stop-color="#A726D5"/>
</linearGradient>
</defs>
</svg>
