<svg width="18" height="17" viewBox="0 0 18 17" fill="none" xmlns="http://www.w3.org/2000/svg">
<path d="M4.16965 0.110717C2.52431 0.362889 0.514729 1.08338 0.0876923 2.74051C-0.326782 4.41566 0.841286 7.00942 1.23064 9.65723C1.62 12.305 1.23064 14.9889 2.03447 16.0156C2.85086 17.0423 4.86044 16.3938 6.32995 15.8354C7.79945 15.2951 8.72888 14.8448 10.4245 15.3851C12.12 15.9435 14.5943 17.4926 16.1266 16.8441C17.6715 16.1777 18.2744 13.3137 17.885 10.828C17.5082 8.34233 16.1266 6.2349 14.6571 5.24422C13.2002 4.23553 11.6679 4.34361 10.6003 3.69516C9.54527 3.04672 8.98008 1.65977 8.03809 0.849222C7.10866 0.0566808 5.81499 -0.159467 4.16965 0.110717Z" fill="url(#paint0_linear_96_189)"/>
<defs>
<linearGradient id="paint0_linear_96_189" x1="18" y1="8.5" x2="1.40268" y2="12.846" gradientUnits="userSpaceOnUse">
<stop offset="0.168525" stop-color="#0B38AD"/>
<stop offset="0.572927" stop-color="#6613AD"/>
<stop offset="1" stop-color="#A726D5"/>
</linearGradient>
</defs>
</svg>
