<svg width="532" height="55" viewBox="0 0 532 55" fill="none" xmlns="http://www.w3.org/2000/svg">
<path d="M28.89 54.96C53.77 54.96 58.33 45.92 58.33 38.4C58.33 33.68 55.61 29.76 50.73 28.32C45.85 26.8 36.25 26.48 29.37 26.24C23.29 26 12.89 25.6 8.81001 23.92C5.53001 22.64 3.61001 20.24 3.61001 16.48C3.61001 9.2 11.53 3.28 28.41 3.28C48.33 3.28 52.65 10.4 52.65 18.56H55.69C55.69 9.12 51.05 0.399999 28.41 0.399999C9.45001 0.399999 0.410012 7.84 0.410012 16.64C0.410012 21.28 2.81001 24.64 6.81001 26.32C11.37 28.24 21.77 28.72 28.09 28.96C34.73 29.28 44.25 29.52 48.89 30.88C53.05 32.08 55.13 34.8 55.13 38.56C55.13 44.88 50.97 52.08 28.89 52.08C6.49001 52.08 3.77001 42.4 3.77001 36.32H0.730012C0.730012 43.12 3.61001 54.96 28.89 54.96ZM71.7425 54H119.823V51.12H74.8625V28.88H111.023V26.16H74.8625V4.24H119.023V1.36H71.7425V54ZM127.611 54H132.091L159.611 29.36L187.211 54H191.851L162.011 27.28L191.051 1.36H186.491L159.851 25.28L133.051 1.36H128.411L157.451 27.36L127.611 54ZM202.677 54H205.717V3.84H205.877L234.917 54H237.477L266.517 3.84H266.597V54H269.797V1.36H264.517L236.357 50.24H236.197L207.957 1.36H202.677V54ZM285.456 54H288.656V1.36H285.456V54ZM304.314 54H307.354V4H307.434L360.874 54H364.074V1.36H360.954V49.6H360.874L309.114 1.36H304.314V54ZM379.75 54H382.95V1.36H379.75V54ZM398.608 54H401.648V4H401.728L455.168 54H458.368V1.36H455.248V49.6H455.168L403.408 1.36H398.608V54ZM503.244 54.96C516.204 54.96 526.044 49.12 528.684 40.08H528.764C528.684 45.76 528.604 50.4 528.444 54H531.484V30.32H499.564V33.04H528.364V33.36C528.364 42.56 519.484 52.08 503.244 52.08C483.244 52.08 474.604 40.64 474.604 28.32C474.604 15.04 483.644 3.28 502.684 3.28C521.244 3.28 527.804 12.32 527.804 20.32C527.804 20.88 527.804 21.44 527.724 22.48H530.764C530.844 21.36 530.844 20.64 530.844 20.24C530.844 10.96 523.484 0.399999 502.684 0.399999C481.564 0.399999 471.404 13.6 471.404 28.32C471.404 41.92 480.844 54.96 503.244 54.96Z" fill="#251135"/>
</svg>
