<svg width="290" height="290" viewBox="0 0 290 290" fill="none" xmlns="http://www.w3.org/2000/svg">
<g clip-path="url(#clip0_14_2)">
<path d="M144.869 0C65.191 0 0 65.191 0 144.869C0 224.547 65.191 289.738 144.869 289.738C224.547 289.738 289.738 224.547 289.738 144.869C289.738 65.191 224.547 0 144.869 0ZM12.072 144.869C12.072 71.831 71.831 12.072 144.869 12.072C180.483 12.072 209.457 40.442 209.457 75.452C209.457 110.462 180.483 138.832 144.869 138.832C102.615 138.832 68.209 172.635 68.209 214.285C68.209 233.601 76.056 251.71 88.128 264.989C43.461 243.863 12.072 197.988 12.072 144.869ZM144.869 277.666C109.255 277.666 80.281 249.296 80.281 214.286C80.281 179.276 109.255 150.906 144.869 150.906C187.123 150.906 221.529 117.103 221.529 75.453C221.529 56.137 213.682 38.028 201.609 24.749C246.277 45.876 277.665 91.751 277.665 144.87C277.666 217.908 217.908 277.666 144.869 277.666Z" fill="black"/>
<path d="M144.869 277.666C109.255 277.666 80.281 249.296 80.281 214.286C80.281 179.276 109.255 150.906 144.869 150.906C187.123 150.906 221.529 117.103 221.529 75.453C221.529 56.137 213.682 38.028 201.609 24.749C246.277 45.876 277.665 91.751 277.665 144.87C277.666 217.908 217.908 277.666 144.869 277.666Z" fill="black"/>
<path d="M143.954 114C138.854 114 133.967 113.23 129.292 111.691C124.617 110.081 120.853 108.017 118 105.497L123.009 92.6906C125.741 94.93 128.958 96.7845 132.662 98.2541C136.426 99.6538 140.22 100.354 144.045 100.354C146.959 100.354 149.296 100.039 151.057 99.4088C152.878 98.709 154.214 97.7643 155.064 96.5746C155.914 95.3849 156.338 94.0203 156.338 92.4807C156.338 90.5212 155.671 88.9816 154.335 87.8619C152.999 86.6722 151.239 85.7274 149.053 85.0276C146.868 84.2578 144.439 83.558 141.768 82.9282C139.158 82.2284 136.517 81.3886 133.845 80.4088C131.235 79.4291 128.837 78.1694 126.651 76.6298C124.466 75.0902 122.675 73.0608 121.278 70.5414C119.943 68.0221 119.275 64.8029 119.275 60.884C119.275 56.6851 120.246 52.8711 122.189 49.442C124.192 45.9429 127.167 43.1786 131.113 41.1492C135.12 39.0497 140.129 38 146.139 38C150.146 38 154.092 38.5599 157.978 39.6796C161.863 40.7293 165.293 42.3389 168.268 44.5083L163.715 57.4199C160.74 55.4604 157.765 54.0258 154.79 53.116C151.816 52.1363 148.901 51.6464 146.048 51.6464C143.195 51.6464 140.857 52.0313 139.036 52.8011C137.215 53.5709 135.91 54.5856 135.12 55.8453C134.331 57.035 133.936 58.4346 133.936 60.0442C133.936 61.9337 134.604 63.4733 135.94 64.663C137.275 65.7827 139.036 66.6924 141.222 67.3923C143.407 68.0921 145.805 68.7919 148.416 69.4917C151.087 70.1915 153.728 70.9963 156.338 71.9061C159.01 72.8158 161.438 74.0405 163.624 75.5801C165.809 77.1197 167.57 79.1492 168.905 81.6685C170.302 84.1878 171 87.372 171 91.221C171 95.3499 169.998 99.1289 167.995 102.558C165.991 105.987 162.986 108.751 158.979 110.851C155.033 112.95 150.025 114 143.954 114Z" fill="black"/>
<path d="M110 246V175H122.568L148.517 225.106H141.858L167.338 175H179.812L180 246H165.744L165.65 198.633H168.276L148.33 238.494H141.483L121.067 198.633H124.256V246H110Z" fill="white"/>
</g>
<defs>
<clipPath id="clip0_14_2">
<rect width="289.739" height="289.739" fill="white"/>
</clipPath>
</defs>
</svg>
