<svg width="1316" height="283" viewBox="0 0 1316 283" fill="none" xmlns="http://www.w3.org/2000/svg">
<g clip-path="url(#clip0_128_109)">
<path d="M140.604 111.349C135.623 111.349 130.85 110.597 126.284 109.093C121.718 107.521 118.041 105.504 115.254 103.044L120.146 90.5348C122.815 92.7221 125.958 94.5335 129.575 95.9689C133.251 97.336 136.958 98.0195 140.693 98.0195C143.54 98.0195 145.823 97.7119 147.542 97.0967C149.321 96.4132 150.626 95.4904 151.456 94.3284C152.286 93.1664 152.701 91.8335 152.701 90.3297C152.701 88.4158 152.049 86.912 150.744 85.8184C149.44 84.6563 147.72 83.7336 145.585 83.05C143.451 82.2981 141.079 81.6146 138.47 80.9994C135.92 80.3159 133.34 79.4956 130.731 78.5387C128.181 77.5817 125.839 76.3513 123.704 74.8476C121.57 73.3438 119.82 71.3615 118.456 68.9008C117.152 66.44 116.5 63.2957 116.5 59.4679C116.5 55.3667 117.448 51.6414 119.346 48.2921C121.303 44.8744 124.208 42.1744 128.063 40.1921C131.976 38.1415 136.869 37.1162 142.739 37.1162C146.653 37.1162 150.507 37.663 154.302 38.7567C158.097 39.782 161.448 41.3541 164.353 43.4731L159.906 56.0844C157 54.1705 154.095 52.7693 151.189 51.8806C148.283 50.9237 145.437 50.4452 142.65 50.4452C139.863 50.4452 137.58 50.8212 135.801 51.5731C134.022 52.3249 132.747 53.3161 131.976 54.5464C131.206 55.7085 130.82 57.0755 130.82 58.6477C130.82 60.4932 131.472 61.997 132.777 63.159C134.082 64.2527 135.801 65.1413 137.936 65.8248C140.071 66.5084 142.413 67.1919 144.963 67.8755C147.572 68.559 150.151 69.3451 152.701 70.2337C155.31 71.1223 157.682 72.3185 159.817 73.8223C161.952 75.326 163.671 77.3083 164.976 79.769C166.34 82.2298 167.022 85.3399 167.022 89.0993C167.022 93.1322 166.043 96.8233 164.086 100.173C162.13 103.522 159.194 106.222 155.281 108.273C151.426 110.323 146.534 111.349 140.604 111.349Z" fill="black"/>
<path fill-rule="evenodd" clip-rule="evenodd" d="M0 141.499C0 63.6747 63.6747 0 141.499 0C219.324 0 282.999 63.6747 282.999 141.499C282.999 219.324 219.324 282.999 141.499 282.999C63.6747 282.999 0 219.324 0 141.499ZM141.499 11.7912C70.1603 11.7912 11.7912 70.1603 11.7912 141.499C11.7912 193.383 42.4501 238.191 86.0782 258.826C74.287 245.855 66.6225 228.168 66.6225 209.301C66.6225 168.62 100.228 135.603 141.499 135.603C176.285 135.603 204.585 107.893 204.585 73.6971C204.585 39.5014 176.285 11.7912 141.499 11.7912ZM107.442 170.928V240.277H121.367V200.093L138.193 232.946H144.88L161.808 199.117L161.89 240.277H175.814L175.631 170.928H163.447L141.782 213.532L119.718 170.928H107.442Z" fill="black"/>
</g>
<path d="M436.19 110.126C435.708 105.262 433.638 101.483 429.98 98.7898C426.322 96.0965 421.357 94.7499 415.086 94.7499C410.825 94.7499 407.227 95.3528 404.293 96.5588C401.358 97.7246 399.107 99.3526 397.539 101.443C396.012 103.533 395.248 105.905 395.248 108.558C395.167 110.769 395.63 112.699 396.635 114.347C397.68 115.995 399.107 117.422 400.916 118.628C402.725 119.794 404.815 120.819 407.187 121.703C409.559 122.547 412.091 123.271 414.784 123.874L425.879 126.527C431.266 127.733 436.21 129.341 440.713 131.351C445.215 133.361 449.114 135.833 452.411 138.768C455.707 141.702 458.26 145.159 460.068 149.139C461.918 153.119 462.862 157.681 462.902 162.827C462.862 170.384 460.933 176.936 457.114 182.484C453.335 187.991 447.868 192.272 440.713 195.327C433.598 198.342 425.015 199.85 414.965 199.85C404.996 199.85 396.313 198.322 388.916 195.267C381.56 192.212 375.812 187.69 371.671 181.7C367.571 175.67 365.42 168.213 365.219 159.329H390.484C390.766 163.47 391.951 166.927 394.042 169.701C396.172 172.434 399.006 174.504 402.544 175.911C406.122 177.278 410.162 177.962 414.664 177.962C419.086 177.962 422.925 177.318 426.181 176.032C429.477 174.746 432.03 172.957 433.839 170.665C435.648 168.374 436.552 165.741 436.552 162.766C436.552 159.993 435.728 157.661 434.08 155.772C432.472 153.882 430.1 152.274 426.965 150.948C423.869 149.621 420.071 148.415 415.568 147.33L402.122 143.953C391.71 141.421 383.49 137.461 377.46 132.075C371.43 126.688 368.435 119.432 368.475 110.307C368.435 102.83 370.425 96.2975 374.445 90.7099C378.505 85.1222 384.073 80.7607 391.148 77.6251C398.223 74.4896 406.262 72.9219 415.267 72.9219C424.432 72.9219 432.432 74.4896 439.266 77.6251C446.14 80.7607 451.486 85.1222 455.305 90.7099C459.124 96.2975 461.094 102.77 461.214 110.126H436.19Z" fill="black"/>
<path d="M480.464 198.101V74.6102H563.676V96.1367H506.574V125.562H559.395V147.089H506.574V176.575H563.917V198.101H480.464Z" fill="black"/>
<path d="M608.915 74.6102L633.818 116.698H634.783L659.807 74.6102H689.292L651.606 136.356L690.137 198.101H660.108L634.783 155.953H633.818L608.493 198.101H578.585L617.236 136.356L579.308 74.6102H608.915Z" fill="black"/>
<path d="M705.814 74.6102H738.013L772.022 157.581H773.469L807.477 74.6102H839.676V198.101H814.351V117.724H813.326L781.368 197.498H764.123L732.165 117.422H731.139V198.101H705.814V74.6102Z" fill="black"/>
<path d="M887.297 74.6102V198.101H861.188V74.6102H887.297Z" fill="black"/>
<path d="M1012.07 74.6102V198.101H989.518L935.792 120.377H934.887V198.101H908.778V74.6102H931.692L984.995 152.274H986.081V74.6102H1012.07Z" fill="black"/>
<path d="M1059.75 74.6102V198.101H1033.64V74.6102H1059.75Z" fill="black"/>
<path d="M1184.52 74.6102V198.101H1161.97L1108.24 120.377H1107.34V198.101H1081.23V74.6102H1104.14L1157.45 152.274H1158.53V74.6102H1184.52Z" fill="black"/>
<path d="M1287.98 114.528C1287.13 111.593 1285.95 109 1284.42 106.749C1282.89 104.458 1281.02 102.528 1278.81 100.961C1276.64 99.3526 1274.15 98.1266 1271.34 97.2824C1268.56 96.4382 1265.49 96.0161 1262.11 96.0161C1255.8 96.0161 1250.25 97.5839 1245.47 100.719C1240.73 103.855 1237.03 108.417 1234.37 114.407C1231.72 120.357 1230.39 127.633 1230.39 136.235C1230.39 144.838 1231.7 152.154 1234.31 158.184C1236.93 164.214 1240.62 168.816 1245.41 171.992C1250.19 175.127 1255.84 176.695 1262.35 176.695C1268.26 176.695 1273.31 175.65 1277.49 173.56C1281.71 171.429 1284.92 168.434 1287.13 164.575C1289.39 160.716 1290.51 156.154 1290.51 150.888L1295.82 151.671H1263.98V132.014H1315.66V147.571C1315.66 158.425 1313.36 167.751 1308.78 175.55C1304.2 183.308 1297.89 189.298 1289.85 193.518C1281.81 197.699 1272.6 199.79 1262.23 199.79C1250.65 199.79 1240.48 197.237 1231.72 192.132C1222.96 186.986 1216.12 179.69 1211.22 170.243C1206.36 160.756 1203.92 149.501 1203.92 136.476C1203.92 126.467 1205.37 117.543 1208.26 109.704C1211.2 101.825 1215.3 95.1518 1220.57 89.6848C1225.83 84.2178 1231.96 80.0572 1238.96 77.2031C1245.95 74.3489 1253.53 72.9219 1261.69 72.9219C1268.68 72.9219 1275.2 73.9469 1281.23 75.9971C1287.26 78.007 1292.6 80.8612 1297.27 84.5594C1301.97 88.2577 1305.81 92.6595 1308.78 97.7648C1311.76 102.83 1313.67 108.417 1314.51 114.528H1287.98Z" fill="black"/>
<defs>
<clipPath id="clip0_128_109">
<rect width="283" height="283" fill="white"/>
</clipPath>
</defs>
</svg>
