<svg width="283" height="283" viewBox="0 0 283 283" fill="none" xmlns="http://www.w3.org/2000/svg">
<g clip-path="url(#clip0_128_110)">
<path d="M140.604 111.349C135.623 111.349 130.85 110.597 126.284 109.093C121.718 107.521 118.041 105.504 115.254 103.044L120.146 90.5348C122.815 92.7221 125.958 94.5335 129.575 95.9689C133.251 97.336 136.958 98.0195 140.693 98.0195C143.54 98.0195 145.823 97.7119 147.542 97.0967C149.321 96.4132 150.626 95.4904 151.456 94.3284C152.286 93.1664 152.701 91.8335 152.701 90.3297C152.701 88.4158 152.049 86.912 150.744 85.8184C149.44 84.6563 147.72 83.7336 145.585 83.05C143.451 82.2981 141.079 81.6146 138.47 80.9994C135.92 80.3159 133.34 79.4956 130.731 78.5387C128.181 77.5817 125.839 76.3513 123.704 74.8476C121.57 73.3438 119.82 71.3615 118.456 68.9008C117.152 66.44 116.5 63.2957 116.5 59.4679C116.5 55.3667 117.448 51.6414 119.346 48.2921C121.303 44.8744 124.208 42.1744 128.063 40.1921C131.976 38.1415 136.869 37.1162 142.739 37.1162C146.653 37.1162 150.507 37.663 154.302 38.7567C158.097 39.782 161.448 41.3541 164.353 43.4731L159.906 56.0844C157 54.1705 154.095 52.7693 151.189 51.8806C148.283 50.9237 145.437 50.4452 142.65 50.4452C139.863 50.4452 137.58 50.8212 135.801 51.5731C134.022 52.3249 132.747 53.3161 131.976 54.5464C131.206 55.7085 130.82 57.0755 130.82 58.6477C130.82 60.4932 131.472 61.997 132.777 63.159C134.082 64.2527 135.801 65.1413 137.936 65.8248C140.071 66.5084 142.413 67.1919 144.963 67.8755C147.572 68.559 150.151 69.3451 152.701 70.2337C155.31 71.1223 157.682 72.3185 159.817 73.8223C161.952 75.326 163.671 77.3083 164.976 79.769C166.34 82.2298 167.022 85.3399 167.022 89.0993C167.022 93.1322 166.043 96.8233 164.086 100.173C162.13 103.522 159.194 106.222 155.281 108.273C151.426 110.323 146.534 111.349 140.604 111.349Z" fill="black"/>
<path fill-rule="evenodd" clip-rule="evenodd" d="M0 141.499C0 63.6747 63.6747 0 141.499 0C219.324 0 282.999 63.6747 282.999 141.499C282.999 219.324 219.324 282.999 141.499 282.999C63.6747 282.999 0 219.324 0 141.499ZM141.499 11.7912C70.1603 11.7912 11.7912 70.1603 11.7912 141.499C11.7912 193.383 42.4501 238.191 86.0782 258.826C74.287 245.855 66.6225 228.168 66.6225 209.301C66.6225 168.62 100.228 135.603 141.499 135.603C176.285 135.603 204.585 107.893 204.585 73.6971C204.585 39.5014 176.285 11.7912 141.499 11.7912ZM107.442 170.928V240.277H121.367V200.093L138.193 232.946H144.88L161.808 199.117L161.89 240.277H175.814L175.631 170.928H163.447L141.782 213.532L119.718 170.928H107.442Z" fill="black"/>
</g>
<defs>
<clipPath id="clip0_128_110">
<rect width="283" height="283" fill="white"/>
</clipPath>
</defs>
</svg>
