<svg width="168" height="168" viewBox="0 0 168 168" fill="none" xmlns="http://www.w3.org/2000/svg">
<g clip-path="url(#clip0_36_27)">
<path d="M83.4691 66.1009C80.5122 66.1009 77.6785 65.6546 74.9679 64.7619C72.2574 63.8286 70.0749 62.6316 68.4204 61.1708L71.3246 53.7451C72.9086 55.0435 74.7743 56.1189 76.9216 56.971C79.1041 57.7825 81.3042 58.1883 83.522 58.1883C85.2116 58.1883 86.5669 58.0057 87.5878 57.6405C88.6438 57.2347 89.4182 56.6869 89.9111 55.9971C90.4039 55.3073 90.6503 54.516 90.6503 53.6233C90.6503 52.4872 90.2631 51.5945 89.4886 50.9452C88.7142 50.2554 87.6934 49.7076 86.4261 49.3018C85.1588 48.8555 83.7508 48.4497 82.2019 48.0845C80.6882 47.6787 79.1569 47.1918 77.6081 46.6237C76.0944 46.0556 74.7039 45.3252 73.4367 44.4325C72.1694 43.5398 71.1309 42.3631 70.3213 40.9023C69.5469 39.4415 69.1596 37.5749 69.1596 35.3026C69.1596 32.8679 69.7229 30.6564 70.8493 28.6681C72.011 26.6392 73.7359 25.0364 76.024 23.8597C78.3473 22.6424 81.2514 22.0337 84.7364 22.0337C87.0597 22.0337 89.3478 22.3583 91.6007 23.0076C93.8537 23.6162 95.8426 24.5495 97.5674 25.8074L94.9273 33.294C93.2024 32.1578 91.4775 31.326 89.7527 30.7984C88.0278 30.2304 86.3381 29.9463 84.6836 29.9463C83.0291 29.9463 81.6739 30.1695 80.6178 30.6158C79.5618 31.0622 78.8049 31.6506 78.3473 32.381C77.8897 33.0708 77.6609 33.8823 77.6609 34.8156C77.6609 35.9112 78.0481 36.8039 78.8225 37.4937C79.597 38.143 80.6178 38.6705 81.8851 39.0763C83.1523 39.482 84.5428 39.8878 86.0565 40.2936C87.6054 40.6994 89.1366 41.166 90.6503 41.6935C92.1992 42.221 93.6072 42.9311 94.8745 43.8238C96.1418 44.7166 97.1626 45.8933 97.9371 47.3541C98.7467 48.8149 99.1515 50.6612 99.1515 52.8929C99.1515 55.287 98.5707 57.4782 97.409 59.4665C96.2474 61.4548 94.5049 63.0576 92.1816 64.2749C89.8935 65.4923 86.9893 66.1009 83.4691 66.1009Z" fill="white"/>
<path fill-rule="evenodd" clip-rule="evenodd" d="M0 83.9997C0 37.7998 37.7998 0 83.9997 0C130.2 0 167.999 37.7998 167.999 83.9997C167.999 130.2 130.2 167.999 83.9997 167.999C37.7998 167.999 0 130.2 0 83.9997ZM83.9997 6.99973C41.6499 6.99973 6.99973 41.6499 6.99973 83.9997C6.99973 114.8 25.2001 141.4 51.0994 153.649C44.0997 145.95 39.5498 135.449 39.5498 124.249C39.5498 100.099 59.4995 80.4993 83.9997 80.4993C104.65 80.4993 121.45 64.0494 121.45 43.7495C121.45 23.4496 104.65 6.99973 83.9997 6.99973ZM63.7814 101.471V142.639H72.0475V118.784L82.0362 138.287H86.0061L96.0552 118.205L96.1036 142.639H104.37L104.261 101.471H97.0281L84.1667 126.762L71.0687 101.471H63.7814Z" fill="white"/>
</g>
<defs>
<clipPath id="clip0_36_27">
<rect width="168" height="168" fill="white"/>
</clipPath>
</defs>
</svg>
