<svg width="141" height="30" viewBox="0 0 141 30" fill="none" xmlns="http://www.w3.org/2000/svg">
<g clip-path="url(#clip0_128_108)">
<path d="M14.9999 0C6.74997 0 0 6.74997 0 14.9999C0 23.2499 6.74997 29.9999 14.9999 29.9999C23.2499 29.9999 29.9999 23.2499 29.9999 14.9999C29.9999 6.74997 23.2499 0 14.9999 0ZM1.24995 14.9999C1.24995 7.43749 7.43749 1.24995 14.9999 1.24995C18.6875 1.24995 21.6875 4.18742 21.6875 7.81241C21.6875 11.4374 18.6875 14.3749 14.9999 14.3749C10.6249 14.3749 7.06246 17.8749 7.06246 22.1874C7.06246 24.1874 7.87495 26.0624 9.1249 27.4373C4.50001 25.2499 1.24995 20.5 1.24995 14.9999ZM14.9999 28.7499C11.3124 28.7499 8.31241 25.8125 8.31241 22.1875C8.31241 18.5625 11.3124 15.625 14.9999 15.625C19.375 15.625 22.9374 12.125 22.9374 7.81251C22.9374 5.81251 22.1249 3.93747 20.8749 2.56255C25.4999 4.75007 28.7498 9.50003 28.7498 15C28.7499 22.5625 22.5625 28.7499 14.9999 28.7499Z" fill="white"/>
<path d="M14.9999 28.7499C11.3124 28.7499 8.31241 25.8125 8.31241 22.1875C8.31241 18.5625 11.3124 15.625 14.9999 15.625C19.375 15.625 22.9374 12.125 22.9374 7.81251C22.9374 5.81251 22.1249 3.93747 20.8749 2.56255C25.4999 4.75007 28.7498 9.50003 28.7498 15C28.7499 22.5625 22.5625 28.7499 14.9999 28.7499Z" fill="white"/>
<path d="M14.905 11.8037C14.377 11.8037 13.871 11.724 13.387 11.5646C12.9029 11.3979 12.5132 11.1842 12.2178 10.9233L12.7364 9.59731C13.0192 9.82919 13.3524 10.0212 13.7358 10.1734C14.1256 10.3183 14.5185 10.3908 14.9145 10.3908C15.2162 10.3908 15.4582 10.3581 15.6405 10.2929C15.8291 10.2205 15.9674 10.1226 16.0554 9.99947C16.1434 9.87629 16.1874 9.73499 16.1874 9.57558C16.1874 9.37269 16.1182 9.21328 15.98 9.09734C15.8417 8.97416 15.6594 8.87634 15.4331 8.80388C15.2068 8.72417 14.9553 8.65171 14.6788 8.5865C14.4085 8.51404 14.135 8.42709 13.8584 8.32564C13.5881 8.2242 13.3398 8.09377 13.1135 7.93436C12.8872 7.77495 12.7018 7.56481 12.5572 7.30396C12.4189 7.0431 12.3498 6.70979 12.3498 6.30401C12.3498 5.86925 12.4504 5.47434 12.6515 5.11929C12.8589 4.75699 13.167 4.47077 13.5756 4.26064C13.9904 4.04326 14.509 3.93457 15.1313 3.93457C15.5462 3.93457 15.9548 3.99254 16.3571 4.10847C16.7594 4.21716 17.1146 4.38382 17.4226 4.60845L16.9511 5.94533C16.6431 5.74245 16.3351 5.5939 16.0271 5.4997C15.7191 5.39826 15.4174 5.34754 15.1219 5.34754C14.8265 5.34754 14.5845 5.38739 14.3959 5.4671C14.2073 5.5468 14.0721 5.65187 13.9904 5.7823C13.9087 5.90548 13.8679 6.0504 13.8679 6.21706C13.8679 6.4127 13.937 6.57211 14.0753 6.69529C14.2136 6.81123 14.3959 6.90543 14.6222 6.97789C14.8485 7.05035 15.0968 7.12281 15.3671 7.19527C15.6437 7.26773 15.9171 7.35106 16.1874 7.44525C16.464 7.53945 16.7154 7.66626 16.9417 7.82567C17.168 7.98508 17.3503 8.19521 17.4886 8.45607C17.6332 8.71693 17.7055 9.04662 17.7055 9.44515C17.7055 9.87266 17.6018 10.2639 17.3943 10.619C17.1869 10.9741 16.8757 11.2603 16.4608 11.4777C16.0522 11.695 15.5337 11.8037 14.905 11.8037Z" fill="white"/>
<path d="M11.3896 25.4711V18.1196H12.6909L15.3778 23.3076H14.6883L17.3266 18.1196H18.6181L18.6375 25.4711H17.1615L17.1518 20.5666H17.4237L15.3583 24.6939H14.6494L12.5356 20.5666H12.8657V25.4711H11.3896Z" fill="black"/>
</g>
<path d="M46.2393 11.674C46.1882 11.1584 45.9688 10.7578 45.581 10.4723C45.1932 10.1868 44.6669 10.044 44.0021 10.044C43.5504 10.044 43.169 10.108 42.858 10.2358C42.5469 10.3594 42.3082 10.532 42.142 10.7536C41.9801 10.9751 41.8991 11.2266 41.8991 11.5078C41.8906 11.7422 41.9396 11.9467 42.0462 12.1214C42.157 12.2962 42.3082 12.4474 42.5 12.5753C42.6918 12.6989 42.9134 12.8075 43.1648 12.9013C43.4162 12.9908 43.6847 13.0675 43.9702 13.1314L45.1463 13.4126C45.7173 13.5405 46.2415 13.7109 46.7188 13.924C47.196 14.1371 47.6094 14.3991 47.9588 14.7102C48.3082 15.0213 48.5788 15.3878 48.7706 15.8097C48.9666 16.2315 49.0668 16.7152 49.071 17.2607C49.0668 18.0618 48.8622 18.7564 48.4574 19.3445C48.0568 19.9283 47.4773 20.3821 46.7188 20.706C45.9645 21.0256 45.0547 21.1854 43.9893 21.1854C42.9325 21.1854 42.0121 21.0234 41.228 20.6996C40.4482 20.3757 39.8388 19.8963 39.3999 19.2614C38.9652 18.6222 38.7372 17.8317 38.7159 16.8899H41.3942C41.424 17.3288 41.5497 17.6953 41.7713 17.9893C41.9972 18.2791 42.2976 18.4986 42.6726 18.6477C43.0518 18.7926 43.4801 18.8651 43.9574 18.8651C44.4261 18.8651 44.8331 18.7969 45.1783 18.6605C45.5277 18.5241 45.7983 18.3345 45.9901 18.0916C46.1818 17.8487 46.2777 17.5696 46.2777 17.2543C46.2777 16.9602 46.1903 16.7131 46.0156 16.5128C45.8452 16.3125 45.5938 16.142 45.2614 16.0014C44.9332 15.8608 44.5305 15.733 44.0533 15.6179L42.6278 15.2599C41.5241 14.9915 40.6527 14.5717 40.0135 14.0007C39.3743 13.4297 39.0568 12.6605 39.0611 11.6932C39.0568 10.9006 39.2678 10.2081 39.6939 9.61577C40.1243 9.02344 40.7145 8.56108 41.4645 8.22869C42.2145 7.89631 43.0668 7.73011 44.0213 7.73011C44.9929 7.73011 45.8409 7.89631 46.5653 8.22869C47.294 8.56108 47.8608 9.02344 48.2656 9.61577C48.6705 10.2081 48.8793 10.8942 48.892 11.674H46.2393ZM50.9327 21V7.90909H59.7537V10.1911H53.7005V13.3104H59.2999V15.5923H53.7005V18.718H59.7793V21H50.9327ZM64.5494 7.90909L67.1893 12.3707H67.2915L69.9442 7.90909H73.07L69.0749 14.4545L73.1594 21H69.9762L67.2915 16.532H67.1893L64.5046 21H61.3342L65.4315 14.4545L61.4109 7.90909H64.5494ZM74.8214 7.90909H78.2347L81.8398 16.7045H81.9933L85.5984 7.90909H89.0117V21H86.3271V12.4794H86.2184L82.8306 20.9361H81.0025L77.6147 12.4474H77.506V21H74.8214V7.90909ZM94.0598 7.90909V21H91.2921V7.90909H94.0598ZM107.287 7.90909V21H104.896L99.2006 12.7607H99.1048V21H96.337V7.90909H98.766L104.417 16.142H104.532V7.90909H107.287ZM112.341 7.90909V21H109.573V7.90909H112.341ZM125.568 7.90909V21H123.177L117.482 12.7607H117.386V21H114.618V7.90909H117.047L122.698 16.142H122.813V7.90909H125.568ZM136.535 12.1406C136.445 11.8295 136.32 11.5547 136.158 11.3161C135.996 11.0732 135.798 10.8686 135.563 10.7024C135.333 10.532 135.069 10.402 134.771 10.3125C134.477 10.223 134.151 10.1783 133.793 10.1783C133.124 10.1783 132.536 10.3445 132.029 10.6768C131.526 11.0092 131.134 11.4929 130.852 12.1278C130.571 12.7585 130.431 13.5298 130.431 14.4418C130.431 15.3537 130.569 16.1293 130.846 16.7685C131.123 17.4077 131.515 17.8956 132.022 18.2322C132.529 18.5646 133.128 18.7308 133.818 18.7308C134.445 18.7308 134.98 18.62 135.423 18.3984C135.87 18.1726 136.211 17.8551 136.445 17.446C136.684 17.0369 136.803 16.5533 136.803 15.995L137.366 16.0781H133.991V13.9943H139.469V15.6435C139.469 16.794 139.226 17.7827 138.74 18.6094C138.254 19.4318 137.585 20.0668 136.733 20.5142C135.881 20.9574 134.905 21.179 133.806 21.179C132.578 21.179 131.5 20.9084 130.571 20.3672C129.642 19.8217 128.918 19.0483 128.398 18.0469C127.882 17.0412 127.624 15.848 127.624 14.4673C127.624 13.4062 127.778 12.4602 128.085 11.6293C128.396 10.794 128.83 10.0866 129.389 9.5071C129.947 8.92756 130.597 8.48651 131.338 8.18395C132.08 7.88139 132.883 7.73011 133.748 7.73011C134.49 7.73011 135.18 7.83878 135.819 8.05611C136.458 8.26918 137.025 8.57173 137.519 8.96378C138.018 9.35582 138.425 9.82244 138.74 10.3636C139.056 10.9006 139.258 11.4929 139.347 12.1406H136.535Z" fill="#DBDBDB"/>
<defs>
<clipPath id="clip0_128_108">
<rect width="30" height="30" fill="white"/>
</clipPath>
</defs>
</svg>
