<svg width="700" height="163" viewBox="0 0 700 163" fill="none" xmlns="http://www.w3.org/2000/svg">
<path d="M35.8 64.08C67.93 64.08 72.79 52.65 72.79 42.57C72.79 36 69.55 31.59 63.97 29.34C59.56 27.63 53.35 26.91 45.25 26.19C38.68 25.65 32.92 25.38 30.85 24.57C29.14 23.94 28.51 22.68 28.51 21.42C28.51 19.08 30.94 16.38 37.87 16.38C45.34 16.38 47.86 19.44 47.86 23.13H70.27C70.27 12.33 65.14 2.7 36.07 2.7C11.14 2.7 0.0700002 11.97 0.0700002 23.67C0.0700002 29.79 2.68 33.93 7.54 36.36C12.13 38.61 21.13 39.69 26.35 40.14C32.02 40.68 37.78 41.13 40.3 41.58C42.73 42.03 43.63 43.47 43.63 45.09C43.63 47.25 42.28 50.4 34.27 50.4C25.99 50.4 24.37 46.53 24.37 43.11H0.43C0.43 51.12 3.49 64.08 35.8 64.08ZM140.246 38.52C140.246 24.93 130.166 17.64 110.276 17.64C91.0164 17.64 78.2364 25.11 78.2364 41.22C78.2364 52.65 85.1664 63.9 110.276 63.9C131.966 63.9 140.066 56.25 140.246 45.99H119.186C119.006 48.51 116.846 50.49 111.986 50.49C105.416 50.49 103.886 47.7 103.616 42.75H140.246V38.52ZM119.186 36.36H103.976C104.786 30.87 107.126 28.8 112.076 28.8C116.936 28.8 119.186 31.05 119.186 35.01V36.36ZM138.913 63H164.383L171.313 51.21L178.603 63H206.953L191.473 40.86L206.053 18.54H182.113L175.543 30.78L168.253 18.54H139.813L155.113 40.68L138.913 63ZM212.643 63H238.023V43.83C238.023 38.97 241.173 37.08 244.053 37.08C247.653 37.08 248.913 38.79 248.913 42.39V63H274.293V43.83C274.293 38.97 277.353 37.08 280.323 37.08C283.833 37.08 285.093 38.79 285.093 42.39V63H310.473V35.55C310.473 24.93 305.613 17.64 292.383 17.64C282.933 17.64 276.543 23.85 274.113 30.69H273.933C272.313 22.32 266.913 17.64 256.203 17.64C245.943 17.64 240.543 24.03 237.933 30.87H237.753L238.023 18.54H212.643V63ZM317.277 14.4H342.747V0.449995H317.277V14.4ZM317.277 63H342.657V18.54H317.277V63ZM350.013 63H375.393V44.01C375.393 39.15 379.263 37.08 383.403 37.08C388.353 37.08 390.063 39.42 390.063 42.84V63H415.443V35.64C415.443 25.02 410.223 17.64 395.553 17.64C383.853 17.64 377.643 24.12 375.303 30.87H375.123L375.393 18.54H350.013V63ZM422.303 14.4H447.773V0.449995H422.303V14.4ZM422.303 63H447.683V18.54H422.303V63ZM455.038 63H480.418V44.01C480.418 39.15 484.288 37.08 488.428 37.08C493.378 37.08 495.088 39.42 495.088 42.84V63H520.468V35.64C520.468 25.02 515.248 17.64 500.578 17.64C488.878 17.64 482.668 24.12 480.328 30.87H480.148L480.418 18.54H455.038V63ZM570.799 53.01H551.179C549.019 53.01 548.299 51.75 548.299 50.67C548.299 49.95 548.569 49.32 548.749 48.96C551.179 49.23 553.879 49.32 556.849 49.32C577.459 49.32 586.549 42.39 586.549 33.48C586.549 30.51 585.559 27.81 583.669 25.56C583.489 25.11 583.399 24.57 583.399 24.03C583.399 22.5 584.389 21.51 587.809 21.51C588.349 21.51 589.339 21.6 590.509 21.78V9.36C589.339 9.18 586.549 8.81999 583.489 8.81999C573.229 8.81999 570.349 11.88 570.349 14.85C570.349 17.37 572.239 18.81 573.949 19.62L573.859 19.8C569.449 18.36 563.779 17.64 556.849 17.64C535.969 17.64 527.239 24.93 527.239 33.48C527.239 39.69 531.019 44.28 538.669 46.89V47.07C532.189 47.88 529.309 51.84 529.309 56.07C529.309 58.23 530.029 61.92 535.249 64.71V64.8C528.499 65.34 526.069 68.22 526.069 71.91C526.069 77.94 534.349 82.62 559.639 82.62C583.669 82.62 592.849 75.15 592.849 65.7C592.849 58.86 587.359 53.01 570.799 53.01ZM556.849 27.36C560.719 27.36 562.609 29.7 562.609 33.48C562.609 37.26 560.809 39.69 556.849 39.69C552.979 39.69 551.089 37.35 551.089 33.48C551.089 29.79 552.979 27.36 556.849 27.36ZM559.639 75.51C552.709 75.51 550.639 73.8 550.639 71.55C550.639 69.57 552.079 68.22 555.049 68.04H558.919C565.759 68.04 567.469 69.48 567.469 71.37C567.469 73.62 566.029 75.51 559.639 75.51ZM17.89 145.9C28.87 145.9 34.18 141.31 36.16 136.27H36.34L36.07 145H61.45V119.62C61.45 108.55 53.08 99.64 30.49 99.64C9.25 99.64 1.51 106.48 1.51 116.56C1.51 117.73 1.6 118.9 1.78 119.53H22.75C22.66 119.17 22.66 118.81 22.66 118.63C22.66 115.66 24.82 113.77 29.5 113.77C34.18 113.77 36.07 116.38 36.07 119.35V122.23H15.73C3.58 122.23 0.0700002 128.17 0.0700002 133.48C0.0700002 139.06 4.21 145.9 17.89 145.9ZM28.33 135.46C24.64 135.46 23.29 133.75 23.29 131.86C23.29 129.88 24.73 128.62 28.42 128.62H36.07V129.7C35.89 132.58 33.1 135.46 28.33 135.46ZM68.0685 162.82H93.4485V145.72C93.4485 143.65 93.2685 139.33 93.2685 137.62H93.4485C96.1485 141.4 101.549 145.9 111.359 145.9C125.219 145.9 134.399 137.8 134.399 121.69C134.399 108.37 126.389 99.64 111.989 99.64C101.819 99.64 96.2385 103.51 93.3585 109.18H93.1785L93.4485 100.54H68.0685V162.82ZM101.729 130.96C97.3185 130.96 94.1685 128.35 93.4485 125.47V123.13C93.5385 117.28 96.9585 114.58 101.729 114.58C106.499 114.58 109.019 117.46 109.019 122.5C109.019 128.08 106.409 130.96 101.729 130.96ZM140.708 162.82H166.088V145.72C166.088 143.65 165.908 139.33 165.908 137.62H166.088C168.788 141.4 174.188 145.9 183.998 145.9C197.858 145.9 207.038 137.8 207.038 121.69C207.038 108.37 199.028 99.64 184.628 99.64C174.458 99.64 168.878 103.51 165.998 109.18H165.818L166.088 100.54H140.708V162.82ZM174.368 130.96C169.958 130.96 166.808 128.35 166.088 125.47V123.13C166.178 117.28 169.598 114.58 174.368 114.58C179.138 114.58 181.658 117.46 181.658 122.5C181.658 128.08 179.048 130.96 174.368 130.96ZM213.348 145H238.728V82H213.348V145ZM246.086 96.4H271.556V82.45H246.086V96.4ZM246.086 145H271.466V100.54H246.086V145ZM308.521 145.9C331.471 145.9 338.941 136.63 338.941 125.02H317.881C317.611 128.53 315.361 130.96 310.681 130.96C305.821 130.96 303.121 128.26 303.121 122.77C303.121 117.55 305.821 114.58 310.771 114.58C315.361 114.58 317.701 117.01 317.791 120.7H338.851C338.851 108.73 331.201 99.64 309.331 99.64C288.361 99.64 277.741 110.17 277.741 122.86C277.741 134.11 286.291 145.9 308.521 145.9ZM361.18 145.9C372.16 145.9 377.47 141.31 379.45 136.27H379.63L379.36 145H404.74V119.62C404.74 108.55 396.37 99.64 373.78 99.64C352.54 99.64 344.8 106.48 344.8 116.56C344.8 117.73 344.89 118.9 345.07 119.53H366.04C365.95 119.17 365.95 118.81 365.95 118.63C365.95 115.66 368.11 113.77 372.79 113.77C377.47 113.77 379.36 116.38 379.36 119.35V122.23H359.02C346.87 122.23 343.36 128.17 343.36 133.48C343.36 139.06 347.5 145.9 361.18 145.9ZM371.62 135.46C367.93 135.46 366.58 133.75 366.58 131.86C366.58 129.88 368.02 128.62 371.71 128.62H379.36V129.7C379.18 132.58 376.39 135.46 371.62 135.46ZM442.589 145.72C450.779 145.72 456.449 145.18 458.159 144.82V129.61C457.079 129.79 454.379 130.06 450.869 130.06C443.489 130.06 441.509 128.71 441.509 125.29V116.92H458.969V100.54H441.509V90.46H420.809L420.179 95.68C419.729 99.37 418.019 100.54 414.869 100.54H409.469V116.92H416.129V128.53C416.129 138.43 423.059 145.72 442.589 145.72ZM465.542 96.4H491.012V82.45H465.542V96.4ZM465.542 145H490.922V100.54H465.542V145ZM529.957 145.9C553.897 145.9 562.717 134.83 562.717 122.86C562.717 110.89 553.717 99.64 529.957 99.64C506.197 99.64 497.197 110.89 497.197 122.86C497.197 134.83 506.017 145.9 529.957 145.9ZM529.957 130.96C524.377 130.96 522.577 127.18 522.577 122.77C522.577 118.27 524.467 114.58 529.957 114.58C535.447 114.58 537.337 118.27 537.337 122.77C537.337 127.27 535.447 130.96 529.957 130.96ZM568.807 145H594.187V126.01C594.187 121.15 598.057 119.08 602.197 119.08C607.147 119.08 608.857 121.42 608.857 124.84V145H634.237V117.64C634.237 107.02 629.017 99.64 614.347 99.64C602.647 99.64 596.437 106.12 594.097 112.87H593.917L594.187 100.54H568.807V145ZM668.638 145.9C694.288 145.9 699.328 138.16 699.328 130.24C699.328 126.91 698.158 123.13 693.478 120.88C690.058 119.26 684.838 118.81 679.078 118.45C675.388 118.27 671.878 118 668.998 117.55C665.668 117.1 664.588 115.66 664.588 113.86C664.588 111.34 666.748 109.63 670.798 109.63C675.568 109.63 677.188 111.52 677.278 115.57H697.348C697.348 107.2 694.018 99.64 668.998 99.64C650.008 99.64 639.928 105.85 639.928 115.75C639.928 119.53 641.908 122.86 645.058 124.57C648.028 126.19 653.068 127.09 661.258 127.72C664.228 127.9 667.468 128.08 670.258 128.44C673.048 128.8 673.948 129.97 673.948 131.77C673.948 133.93 672.418 135.91 667.108 135.91C661.798 135.91 660.268 133.48 660.088 130.24H639.928C639.928 137.17 642.448 145.9 668.638 145.9Z" fill="white"/>
</svg>
