<svg width="538" height="96" viewBox="0 0 538 96" fill="none" xmlns="http://www.w3.org/2000/svg">
<g filter="url(#filter0_d_49_146)">
<path d="M38.8384 79C59.713 79 69.004 69.2189 69.004 54.8284C69.004 47.5207 66.7114 42.3491 62.7296 39.2012C59.351 36.6154 55.1278 35.0414 49.4567 33.6923C44.3889 32.3432 40.5277 31.4438 38.959 30.3195C37.6318 29.3077 36.9078 27.8462 36.9078 24.5858C36.9078 21.3254 38.2351 19.4142 40.769 19.4142C44.0269 19.4142 45.2335 21.213 45.2335 29.3077H67.0734C67.0734 11.6568 60.437 3 38.959 3C20.1357 3 10 12.7811 10 26.9467C10 34.7041 12.6546 40.213 16.6364 43.0237C20.1357 45.7219 25.3242 47.4083 29.7887 48.645C34.1325 49.7692 37.5111 50.5562 39.2004 51.3432C41.131 52.2426 41.7343 53.5917 41.7343 56.8521C41.7343 60.787 40.5277 62.5858 37.8731 62.5858C34.4945 62.5858 33.2879 60.3373 33.2879 52.4675H10.1207C10.1207 67.8698 16.0331 79 38.8384 79Z" fill="white"/>
<path d="M73.1876 77.9882H119.039V56.9645H99.9748V47.071H113.489V34.7041H99.9748V25.0355H118.195V4.01183H73.1876V77.9882Z" fill="white"/>
<path d="M120.98 77.9882H148.492L153.197 56.6272L158.265 77.9882H190.603L175.761 39.9882L189.637 4.01183H163.695L159.351 24.6982L154.766 4.01183H121.825L136.305 39.8757L120.98 77.9882Z" fill="white"/>
<path d="M194.086 77.9882H215.443L214.719 37.8521H215.081L222.2 77.9882H237.042L244.161 37.8521H244.523L243.799 77.9882H270.465V4.01183H238.369L234.267 34.2544H233.905L229.923 4.01183H194.086V77.9882Z" fill="white"/>
<path d="M276.222 77.9882H303.009V4.01183H276.222V77.9882Z" fill="white"/>
<path d="M308.975 77.9882H330.694L328.884 35.0414H329.125L339.502 77.9882H372.323V4.01183H350.603L351.81 40.5503H351.689L343.605 4.01183H308.975V77.9882Z" fill="white"/>
<path d="M378.031 77.9882H404.819V4.01183H378.031V77.9882Z" fill="white"/>
<path d="M410.784 77.9882H432.503L430.693 35.0414H430.934L441.311 77.9882H474.132V4.01183H452.412L453.619 40.5503H453.498L445.414 4.01183H410.784V77.9882Z" fill="white"/>
<path d="M502.887 79C511.213 79 516.039 75.6272 517.729 68.3195H517.97C517.97 72.3669 517.608 76.6391 517.367 77.9882H538V40.3254H510.006V51.3432H516.039V51.9053C516.039 57.8639 514.591 59.7751 511.334 59.7751C507.231 59.7751 505.421 56.2899 505.421 42.2367C505.421 28.2959 507.352 24.0237 511.454 24.0237C514.833 24.0237 516.401 26.2722 516.401 32.2308C516.401 33.5799 516.401 35.6035 516.281 37.1775H537.397C537.517 35.3787 537.638 32.2308 537.638 30.2071C537.638 12.4438 531.002 3 509.524 3C488.408 3 478.393 15.2544 478.393 42.0118C478.393 67.9822 486.598 79 502.887 79Z" fill="white"/>
</g>
<defs>
<filter id="filter0_d_49_146" x="0" y="0" width="548" height="96" filterUnits="userSpaceOnUse" color-interpolation-filters="sRGB">
<feFlood flood-opacity="0" result="BackgroundImageFix"/>
<feColorMatrix in="SourceAlpha" type="matrix" values="0 0 0 0 0 0 0 0 0 0 0 0 0 0 0 0 0 0 127 0" result="hardAlpha"/>
<feOffset dy="7"/>
<feGaussianBlur stdDeviation="5"/>
<feComposite in2="hardAlpha" operator="out"/>
<feColorMatrix type="matrix" values="0 0 0 0 0 0 0 0 0 0 0 0 0 0 0 0 0 0 0.35 0"/>
<feBlend mode="normal" in2="BackgroundImageFix" result="effect1_dropShadow_49_146"/>
<feBlend mode="normal" in="SourceGraphic" in2="effect1_dropShadow_49_146" result="shape"/>
</filter>
</defs>
</svg>
