<svg width="384" height="366" viewBox="0 0 384 366" fill="none" xmlns="http://www.w3.org/2000/svg">
<g filter="url(#filter0_ddii_74_17)">
<path d="M233.685 328.877C195.19 319.681 163.26 325.182 146.531 310.206C130.02 295.086 129.003 259.93 102.804 228.684C76.604 197.437 35.2545 171.589 18.4826 135.716C1.49324 99.9867 18.823 55.2802 52.0989 33.3576C85.2291 11.2139 134.016 12.3617 174.959 12.0191C215.903 11.6764 248.785 9.98661 284.437 13.4472C320.235 17.1288 359.019 25.8176 366.479 52.29C373.793 78.5413 350.001 122.433 346.662 157.605C343.541 192.633 361.091 218.799 368.427 255.498C376.127 292.275 373.612 339.586 350.115 351.262C326.618 362.937 271.963 338.217 233.685 328.877Z" fill="#251135"/>
<path d="M233.922 327.906L233.918 327.905C218.804 324.294 204.676 322.936 192.148 321.732C188.655 321.396 185.287 321.072 182.056 320.715C167.15 319.067 155.3 316.711 147.202 309.464C143.212 305.809 140.12 300.907 137.32 295.052C134.914 290.021 132.751 284.349 130.413 278.219C130.026 277.203 129.633 276.174 129.234 275.134C123.637 260.537 116.784 243.801 103.57 228.041C93.777 216.362 81.862 205.419 69.9526 194.482C65.8708 190.733 61.7896 186.985 57.7947 183.208C42.095 168.365 27.6882 153.044 19.3885 135.292L19.3857 135.287C2.6554 100.102 19.6962 55.9025 52.649 34.1927L52.6546 34.189C69.0309 23.2433 89.3302 18.0217 110.716 15.5061C129.465 13.3007 148.963 13.1825 167.299 13.0714C169.88 13.0557 172.438 13.0402 174.968 13.019C184.062 12.9429 192.752 12.8007 201.159 12.6631C230.65 12.1804 256.651 11.7548 284.341 14.4425C302.213 16.2809 320.746 19.3628 335.719 25.2526C350.709 31.1498 361.912 39.7716 365.516 52.5595C367.29 58.9285 367.193 66.434 365.949 74.7257C364.705 83.0113 362.329 92.004 359.606 101.322C358.617 104.703 357.582 108.129 356.541 111.578C351.861 127.07 347.042 143.025 345.667 157.51L345.666 157.516C344.088 175.227 347.742 190.676 352.67 206.227C353.98 210.36 355.376 214.493 356.79 218.677C360.71 230.275 364.761 242.261 367.447 255.694L367.448 255.703C371.279 274.002 372.563 294.904 369.98 312.649C367.386 330.467 360.95 344.761 349.67 350.366C344.042 353.163 336.442 353.823 327.484 353.007C318.545 352.194 308.381 349.924 297.708 346.986C288.212 344.371 278.349 341.237 268.621 338.146C267.42 337.764 266.22 337.383 265.024 337.004C254.153 333.556 243.529 330.25 233.922 327.906Z" stroke="white" stroke-width="2"/>
</g>
<defs>
<filter id="filter0_ddii_74_17" x="0.864014" y="0.305298" width="382.464" height="365.027" filterUnits="userSpaceOnUse" color-interpolation-filters="sRGB">
<feFlood flood-opacity="0" result="BackgroundImageFix"/>
<feColorMatrix in="SourceAlpha" type="matrix" values="0 0 0 0 0 0 0 0 0 0 0 0 0 0 0 0 0 0 127 0" result="hardAlpha"/>
<feOffset/>
<feGaussianBlur stdDeviation="5.5"/>
<feColorMatrix type="matrix" values="0 0 0 0 0.0432532 0 0 0 0 0.220703 0 0 0 0 0.677004 0 0 0 1 0"/>
<feBlend mode="normal" in2="BackgroundImageFix" result="effect1_dropShadow_74_17"/>
<feColorMatrix in="SourceAlpha" type="matrix" values="0 0 0 0 0 0 0 0 0 0 0 0 0 0 0 0 0 0 127 0" result="hardAlpha"/>
<feOffset/>
<feGaussianBlur stdDeviation="5"/>
<feColorMatrix type="matrix" values="0 0 0 0 0.419797 0 0 0 0 0.123518 0 0 0 0 0.668671 0 0 0 1 0"/>
<feBlend mode="normal" in2="effect1_dropShadow_74_17" result="effect2_dropShadow_74_17"/>
<feBlend mode="normal" in="SourceGraphic" in2="effect2_dropShadow_74_17" result="shape"/>
<feColorMatrix in="SourceAlpha" type="matrix" values="0 0 0 0 0 0 0 0 0 0 0 0 0 0 0 0 0 0 127 0" result="hardAlpha"/>
<feOffset dy="2"/>
<feGaussianBlur stdDeviation="0.5"/>
<feComposite in2="hardAlpha" operator="arithmetic" k2="-1" k3="1"/>
<feColorMatrix type="matrix" values="0 0 0 0 0.141176 0 0 0 0 0.489882 0 0 0 0 0.811765 0 0 0 1 0"/>
<feBlend mode="normal" in2="shape" result="effect3_innerShadow_74_17"/>
<feColorMatrix in="SourceAlpha" type="matrix" values="0 0 0 0 0 0 0 0 0 0 0 0 0 0 0 0 0 0 127 0" result="hardAlpha"/>
<feOffset dy="-1"/>
<feGaussianBlur stdDeviation="1"/>
<feComposite in2="hardAlpha" operator="arithmetic" k2="-1" k3="1"/>
<feColorMatrix type="matrix" values="0 0 0 0 0.368627 0 0 0 0 0.0745098 0 0 0 0 0.615686 0 0 0 1 0"/>
<feBlend mode="normal" in2="effect3_innerShadow_74_17" result="effect4_innerShadow_74_17"/>
</filter>
</defs>
</svg>
