<svg width="456" height="444" viewBox="0 0 456 444" fill="none" xmlns="http://www.w3.org/2000/svg">
<g filter="url(#filter0_ddii_118_66)">
<path d="M440.427 271.751C447.793 313.051 448.45 366.233 418.176 387.526C387.444 408.636 326.146 397.738 269.656 405.952C213.166 414.165 161.846 441.372 134.996 428.834C108.05 415.994 105.937 363.291 106.094 324.191C105.887 285.212 107.951 259.837 84.1784 222.593C60.0413 185.469 9.97228 136.172 11.4751 94.9625C13.247 53.3306 66.5907 19.7854 119.803 12.6486C172.92 5.20934 226.002 24.4809 257.167 53.289C288.602 81.6749 298.026 119.295 319.226 140.697C340.331 161.797 372.658 166.194 396.185 183.495C419.253 200.613 433.424 230.332 440.427 271.751Z" fill="#251135"/>
<path d="M439.445 271.93L439.446 271.938C443.12 292.534 445.11 316.043 442.428 337.023C439.745 358.022 432.409 376.295 417.616 386.702C402.524 397.066 379.81 399.63 353.55 400.572C346.803 400.814 339.828 400.949 332.706 401.087C312.228 401.483 290.533 401.903 269.524 404.958C247.739 408.126 226.701 414.114 207.603 419.551C201.871 421.182 196.313 422.764 190.963 424.205C179.349 427.333 168.718 429.797 159.335 430.704C149.948 431.612 141.911 430.951 135.426 427.925C122.416 421.723 115.228 405.786 111.358 386.155C107.503 366.594 107.012 343.731 107.09 324.185L107.09 324.176C107.074 321.036 107.072 317.982 107.07 315.001C107.051 281.014 107.036 256.54 85.0181 222.044L85.0135 222.037C78.9544 212.718 71.2751 202.645 63.2143 192.164C62.6492 191.43 62.0821 190.693 61.5136 189.954C53.9638 180.143 46.1506 169.99 39.0303 159.729C23.6815 137.61 11.7341 115.231 12.4706 94.9928C13.3388 74.6165 26.8415 56.0753 46.9209 41.6858C66.9829 27.3086 93.4637 17.1924 119.925 13.6435L119.93 13.6427C172.751 6.24492 225.539 25.422 256.49 54.0317L256.49 54.0317L256.498 54.0394C272.093 68.1217 282.244 84.5069 291.17 100.119C292.332 102.151 293.473 104.172 294.604 106.174C302.137 119.504 309.2 132.004 318.517 141.41L318.521 141.413C329.218 152.108 342.734 158.544 356.397 164.444C358.134 165.194 359.873 165.936 361.61 166.676C373.581 171.78 385.417 176.826 395.59 184.307C418.362 201.206 432.462 230.626 439.445 271.93Z" stroke="white" stroke-width="2"/>
</g>
<defs>
<filter id="filter0_ddii_118_66" x="0.441895" y="0.0448914" width="455.22" height="443.04" filterUnits="userSpaceOnUse" color-interpolation-filters="sRGB">
<feFlood flood-opacity="0" result="BackgroundImageFix"/>
<feColorMatrix in="SourceAlpha" type="matrix" values="0 0 0 0 0 0 0 0 0 0 0 0 0 0 0 0 0 0 127 0" result="hardAlpha"/>
<feOffset/>
<feGaussianBlur stdDeviation="5.5"/>
<feColorMatrix type="matrix" values="0 0 0 0 0.0432532 0 0 0 0 0.220703 0 0 0 0 0.677004 0 0 0 1 0"/>
<feBlend mode="normal" in2="BackgroundImageFix" result="effect1_dropShadow_118_66"/>
<feColorMatrix in="SourceAlpha" type="matrix" values="0 0 0 0 0 0 0 0 0 0 0 0 0 0 0 0 0 0 127 0" result="hardAlpha"/>
<feOffset/>
<feGaussianBlur stdDeviation="5"/>
<feColorMatrix type="matrix" values="0 0 0 0 0.419797 0 0 0 0 0.123518 0 0 0 0 0.668671 0 0 0 1 0"/>
<feBlend mode="normal" in2="effect1_dropShadow_118_66" result="effect2_dropShadow_118_66"/>
<feBlend mode="normal" in="SourceGraphic" in2="effect2_dropShadow_118_66" result="shape"/>
<feColorMatrix in="SourceAlpha" type="matrix" values="0 0 0 0 0 0 0 0 0 0 0 0 0 0 0 0 0 0 127 0" result="hardAlpha"/>
<feOffset dy="2"/>
<feGaussianBlur stdDeviation="0.5"/>
<feComposite in2="hardAlpha" operator="arithmetic" k2="-1" k3="1"/>
<feColorMatrix type="matrix" values="0 0 0 0 0.141176 0 0 0 0 0.489882 0 0 0 0 0.811765 0 0 0 1 0"/>
<feBlend mode="normal" in2="shape" result="effect3_innerShadow_118_66"/>
<feColorMatrix in="SourceAlpha" type="matrix" values="0 0 0 0 0 0 0 0 0 0 0 0 0 0 0 0 0 0 127 0" result="hardAlpha"/>
<feOffset dy="-1"/>
<feGaussianBlur stdDeviation="1"/>
<feComposite in2="hardAlpha" operator="arithmetic" k2="-1" k3="1"/>
<feColorMatrix type="matrix" values="0 0 0 0 0.368627 0 0 0 0 0.0745098 0 0 0 0 0.615686 0 0 0 1 0"/>
<feBlend mode="normal" in2="effect3_innerShadow_118_66" result="effect4_innerShadow_118_66"/>
</filter>
</defs>
</svg>
