<svg width="688" height="482" viewBox="0 0 688 482" fill="none" xmlns="http://www.w3.org/2000/svg">
<g filter="url(#filter0_ddii_100_28)">
<path d="M645.5 288C619.796 336.561 621.912 378.983 591.143 398.294C560.171 417.299 497.174 412.885 435.078 441.858C372.982 470.832 276.578 443.042 208.5 459C140.625 475.264 62.0618 478.873 30.9596 432.022C-0.57239 385.324 13.248 322.066 22.5154 268.765C31.7828 215.464 7.73628 172.799 22.5155 127C37.7246 81.0475 93.448 16.8821 142.5 11.5001C191.123 6.27131 261.835 59.1464 323.81 69.227C385.582 79.0014 436.521 60.4473 503.799 56.895C571.302 52.8831 655.144 63.8729 670.315 96.3345C685.486 128.796 671.407 239.745 645.5 288Z" fill="#251135"/>
<path d="M644.489 287.541L644.488 287.544C634.414 306.575 628.595 324.684 623.424 340.776C621.98 345.269 620.587 349.604 619.166 353.759C612.637 372.843 605.536 388.051 590.408 397.548C582.788 402.223 573.162 405.479 561.979 408.179C552.38 410.496 541.69 412.391 530.188 414.43C528.282 414.768 526.353 415.11 524.404 415.458C497.009 420.355 465.615 426.514 434.438 441.061C403.651 455.426 364.301 455.744 323.915 454.412C318.666 454.239 313.4 454.038 308.133 453.837C272.986 452.496 237.836 451.154 208.063 458.133L208.057 458.134C174.173 466.253 137.711 471.189 105.9 468.286C74.1091 465.385 47.172 454.689 31.9015 431.686L31.8969 431.679C16.2862 408.56 11.8592 381.27 12.5297 353.019C13.1175 328.257 17.6151 302.859 21.8406 278.998C22.4354 275.639 23.0249 272.31 23.5973 269.018C27.9668 243.887 24.9621 221.107 22.0937 199.361C21.906 197.938 21.7189 196.52 21.5345 195.105C18.529 172.054 16.2379 150.085 23.5729 127.351C31.1375 104.495 48.8038 77.0549 70.7066 54.6589C81.6542 43.4647 93.6409 33.5507 105.925 26.106C118.219 18.6559 130.754 13.7129 142.796 12.3912C154.707 11.1105 168.041 13.382 182.388 17.7346C196.735 22.0869 212.001 28.4901 227.751 35.4021C231.14 36.8896 234.552 38.401 237.982 39.9203C266.342 52.4817 295.911 65.5788 323.754 70.1077L323.76 70.1086C354.84 75.0265 383.165 72.8114 412.066 68.946C419.726 67.9215 427.421 66.7822 435.218 65.6278C456.883 62.42 479.339 59.0951 504.027 57.7916L504.035 57.7911C537.706 55.79 575.423 57.5337 606.574 63.8085C622.151 66.9462 636.03 71.2059 646.927 76.6625C657.822 82.1181 665.646 88.723 669.302 96.5441C673.014 104.489 674.98 117.369 675.389 133.078C675.796 148.753 674.653 167.135 672.225 186.023C667.367 223.817 657.385 263.522 644.489 287.541Z" stroke="white" stroke-width="2"/>
</g>
<defs>
<filter id="filter0_ddii_100_28" x="0.373047" y="0.13739" width="687.189" height="480.886" filterUnits="userSpaceOnUse" color-interpolation-filters="sRGB">
<feFlood flood-opacity="0" result="BackgroundImageFix"/>
<feColorMatrix in="SourceAlpha" type="matrix" values="0 0 0 0 0 0 0 0 0 0 0 0 0 0 0 0 0 0 127 0" result="hardAlpha"/>
<feOffset/>
<feGaussianBlur stdDeviation="5.5"/>
<feColorMatrix type="matrix" values="0 0 0 0 0.0432532 0 0 0 0 0.220703 0 0 0 0 0.677004 0 0 0 1 0"/>
<feBlend mode="normal" in2="BackgroundImageFix" result="effect1_dropShadow_100_28"/>
<feColorMatrix in="SourceAlpha" type="matrix" values="0 0 0 0 0 0 0 0 0 0 0 0 0 0 0 0 0 0 127 0" result="hardAlpha"/>
<feOffset/>
<feGaussianBlur stdDeviation="5"/>
<feColorMatrix type="matrix" values="0 0 0 0 0.419797 0 0 0 0 0.123518 0 0 0 0 0.668671 0 0 0 1 0"/>
<feBlend mode="normal" in2="effect1_dropShadow_100_28" result="effect2_dropShadow_100_28"/>
<feBlend mode="normal" in="SourceGraphic" in2="effect2_dropShadow_100_28" result="shape"/>
<feColorMatrix in="SourceAlpha" type="matrix" values="0 0 0 0 0 0 0 0 0 0 0 0 0 0 0 0 0 0 127 0" result="hardAlpha"/>
<feOffset dy="2"/>
<feGaussianBlur stdDeviation="0.5"/>
<feComposite in2="hardAlpha" operator="arithmetic" k2="-1" k3="1"/>
<feColorMatrix type="matrix" values="0 0 0 0 0.141176 0 0 0 0 0.489882 0 0 0 0 0.811765 0 0 0 1 0"/>
<feBlend mode="normal" in2="shape" result="effect3_innerShadow_100_28"/>
<feColorMatrix in="SourceAlpha" type="matrix" values="0 0 0 0 0 0 0 0 0 0 0 0 0 0 0 0 0 0 127 0" result="hardAlpha"/>
<feOffset dy="-1"/>
<feGaussianBlur stdDeviation="1"/>
<feComposite in2="hardAlpha" operator="arithmetic" k2="-1" k3="1"/>
<feColorMatrix type="matrix" values="0 0 0 0 0.368627 0 0 0 0 0.0745098 0 0 0 0 0.615686 0 0 0 1 0"/>
<feBlend mode="normal" in2="effect3_innerShadow_100_28" result="effect4_innerShadow_100_28"/>
</filter>
</defs>
</svg>
